<svg width="168" height="26" viewBox="0 0 168 26" fill="none" xmlns="http://www.w3.org/2000/svg">
<path d="M9.81165 24.2907C7.17906 24.2907 5.07945 23.7174 3.51281 22.5706C1.94618 21.4078 1.09018 19.8008 0.944826 17.7496H5.1602C5.30556 18.8156 5.78201 19.6231 6.58956 20.1722C7.41325 20.7052 8.54381 20.9717 9.98124 20.9717C11.2572 20.9717 12.2181 20.7698 12.8642 20.3661C13.5102 19.9461 13.8332 19.3324 13.8332 18.5249C13.8332 17.895 13.6233 17.3943 13.2033 17.0228C12.7996 16.6514 12.1374 16.3687 11.2168 16.1749L7.17099 15.3512C5.34594 14.9636 3.98119 14.3256 3.07674 13.4373C2.17229 12.5329 1.72007 11.3619 1.72007 9.92452C1.72007 8.09947 2.40648 6.67012 3.7793 5.63646C5.16828 4.6028 7.04986 4.08598 9.42403 4.08598C11.8305 4.08598 13.7686 4.62703 15.2383 5.70914C16.7081 6.79125 17.5318 8.30135 17.7094 10.2395H13.4941C13.0257 8.26905 11.5963 7.28385 9.206 7.28385C8.12389 7.28385 7.27597 7.47766 6.66223 7.86528C6.0485 8.2529 5.74163 8.81011 5.74163 9.5369C5.74163 10.6513 6.5411 11.37 8.14004 11.693L12.3554 12.5652C14.2612 12.9528 15.6502 13.6069 16.5223 14.5275C17.4106 15.432 17.8548 16.6594 17.8548 18.2099C17.8548 20.1319 17.1522 21.6258 15.7471 22.6918C14.3581 23.7577 12.3796 24.2907 9.81165 24.2907ZM24.4148 24C23.3812 24 22.5736 23.7416 21.9922 23.2248C21.4269 22.6918 21.1443 21.8842 21.1443 20.8021V12.6136H18.649V9.46422H21.1927V5.10348H25.1174V9.46422H28.4848V12.6136H25.1658V20.8506H28.824V24H24.4148ZM31.6759 24V13.4373H29.6893V9.46422H33.7594V12.3229H34.7769C35.1645 11.3054 35.7782 10.5463 36.6181 10.0456C37.4579 9.54497 38.4027 9.29463 39.4525 9.29463H40.6881V12.7832H39.283C38.0232 12.7832 37.0945 13.1385 36.4969 13.8492C35.9155 14.5598 35.6248 15.4966 35.6248 16.6594V24H31.6759ZM48.4886 24.2907C46.9219 24.2907 45.5572 23.9838 44.3943 23.3701C43.2315 22.7402 42.3351 21.86 41.7052 20.7294C41.0753 19.5827 40.7604 18.2341 40.7604 16.6837C40.7604 15.1332 41.0672 13.8007 41.681 12.6863C42.2947 11.5558 43.1669 10.6917 44.2974 10.0941C45.4441 9.48037 46.7927 9.1735 48.3432 9.1735C49.8614 9.1735 51.1615 9.46422 52.2437 10.0456C53.3419 10.6271 54.1818 11.4588 54.7632 12.541C55.3446 13.6231 55.6353 14.9151 55.6353 16.4172V17.7738H44.6124C44.7739 18.8559 45.1857 19.6796 45.8479 20.2449C46.5101 20.8102 47.3822 21.0928 48.4643 21.0928C49.3203 21.0928 49.9987 20.9475 50.4994 20.6568C51 20.3661 51.3554 19.9219 51.5653 19.3243H55.5869C55.2639 20.8748 54.4805 22.0942 53.2369 22.9825C51.9933 23.8546 50.4105 24.2907 48.4886 24.2907ZM44.7093 15.1089H51.7834C51.6541 14.1883 51.2988 13.5019 50.7174 13.0497C50.136 12.5813 49.3526 12.3471 48.3674 12.3471C47.3822 12.3471 46.5747 12.5813 45.9448 13.0497C45.3311 13.5181 44.9192 14.2045 44.7093 15.1089ZM64.3735 24.2907C62.8068 24.2907 61.4421 23.9838 60.2792 23.3701C59.1163 22.7402 58.22 21.86 57.5901 20.7294C56.9602 19.5827 56.6453 18.2341 56.6453 16.6837C56.6453 15.1332 56.9521 13.8007 57.5659 12.6863C58.1796 11.5558 59.0517 10.6917 60.1823 10.0941C61.329 9.48037 62.6776 9.1735 64.2281 9.1735C65.7463 9.1735 67.0464 9.46422 68.1285 10.0456C69.2268 10.6271 70.0666 11.4588 70.6481 12.541C71.2295 13.6231 71.5202 14.9151 71.5202 16.4172V17.7738H60.4972C60.6588 18.8559 61.0706 19.6796 61.7328 20.2449C62.395 20.8102 63.2671 21.0928 64.3492 21.0928C65.2052 21.0928 65.8836 20.9475 66.3842 20.6568C66.8849 20.3661 67.2402 19.9219 67.4502 19.3243H71.4718C71.1487 20.8748 70.3654 22.0942 69.1218 22.9825C67.8782 23.8546 66.2954 24.2907 64.3735 24.2907ZM60.5942 15.1089H67.6682C67.539 14.1883 67.1837 13.5019 66.6023 13.0497C66.0208 12.5813 65.2375 12.3471 64.2523 12.3471C63.2671 12.3471 62.4596 12.5813 61.8297 13.0497C61.216 13.5181 60.8041 14.2045 60.5942 15.1089ZM77.9326 24C76.899 24 76.0914 23.7416 75.51 23.2248C74.9447 22.6918 74.6621 21.8842 74.6621 20.8021V12.6136H72.1668V9.46422H74.7105V5.10348H78.6352V9.46422H82.0026V12.6136H78.6836V20.8506H82.3418V24H77.9326Z" fill="#00996A"/>
<path d="M93.2293 24.2907C90.7097 24.2907 88.6989 23.7416 87.1969 22.6433C85.711 21.5451 84.8954 20.0188 84.7501 18.0646H87.6814C87.746 19.3082 88.2629 20.2691 89.2319 20.9475C90.201 21.6097 91.5576 21.9408 93.3019 21.9408C94.8524 21.9408 96.0395 21.6662 96.8632 21.1171C97.6869 20.5679 98.0988 19.7523 98.0988 18.6702C98.0988 17.8304 97.808 17.144 97.2266 16.611C96.6613 16.078 95.8134 15.7065 94.6828 15.4966L90.9278 14.7456C89.2319 14.4064 87.9399 13.8007 87.0516 12.9286C86.1633 12.0403 85.7191 10.9339 85.7191 9.60957C85.7191 7.91373 86.3571 6.57321 87.633 5.58801C88.9089 4.58665 90.6451 4.08598 92.8416 4.08598C95.0543 4.08598 96.8551 4.61088 98.2441 5.66069C99.6492 6.69434 100.457 8.13984 100.667 9.99719H97.7354C97.2508 7.60687 95.5631 6.4117 92.6721 6.4117C91.3477 6.4117 90.306 6.67012 89.5469 7.18694C88.8039 7.70377 88.4325 8.43864 88.4325 9.39154C88.4325 10.9259 89.5226 11.9111 91.703 12.3471L95.6277 13.1224C97.3397 13.4616 98.6317 14.0834 99.5039 14.9878C100.376 15.8761 100.812 17.0309 100.812 18.4522C100.812 20.2934 100.142 21.7308 98.8013 22.7645C97.4608 23.782 95.6034 24.2907 93.2293 24.2907ZM104.254 24V12.2745H102.849V9.46422H105.756V11.693H106.919C107.339 10.8855 107.944 10.2718 108.736 9.85184C109.543 9.41576 110.512 9.19773 111.643 9.19773C112.789 9.19773 113.759 9.42384 114.55 9.87606C115.357 10.3283 116.004 11.0228 116.488 11.9595H116.561C117.578 10.1183 119.25 9.19773 121.576 9.19773C123.368 9.19773 124.765 9.71455 125.767 10.7482C126.768 11.7819 127.269 13.2031 127.269 15.012V24H124.555V15.3997C124.555 12.8478 123.312 11.5719 120.825 11.5719C118.353 11.5719 117.118 12.8478 117.118 15.3997V24H114.405V15.3997C114.405 12.8478 113.161 11.5719 110.674 11.5719C109.462 11.5719 108.542 11.903 107.912 12.5652C107.282 13.2112 106.967 14.156 106.967 15.3997V24H104.254ZM134.836 24.2665C133.189 24.2665 131.889 23.8627 130.936 23.0552C129.999 22.2315 129.531 21.1574 129.531 19.8331C129.531 18.4441 129.999 17.3701 130.936 16.611C131.873 15.8357 133.221 15.4481 134.982 15.4481H139.948V14.794C139.948 12.549 138.713 11.4265 136.242 11.4265C134.223 11.4265 133.003 12.1856 132.583 13.7038H129.846C130.088 12.2664 130.774 11.152 131.905 10.3606C133.052 9.5692 134.513 9.1735 136.29 9.1735C138.309 9.1735 139.851 9.64995 140.917 10.6029C141.999 11.5558 142.54 12.9286 142.54 14.7213V21.1897H143.849V24H140.941V21.7712H139.924C139.423 22.5464 138.737 23.1602 137.865 23.6124C136.993 24.0485 135.983 24.2665 134.836 24.2665ZM135.2 22.0861C136.072 22.0861 136.871 21.9085 137.598 21.5531C138.325 21.1978 138.898 20.7133 139.318 20.0996C139.738 19.4858 139.948 18.8156 139.948 18.0888V17.4347H135.151C133.116 17.4347 132.099 18.1938 132.099 19.7119C132.099 20.4387 132.373 21.0202 132.923 21.4562C133.472 21.8762 134.231 22.0861 135.2 22.0861ZM146.823 24V12.2745H145.418V9.46422H148.325V12.1776H149.342C149.746 11.2893 150.368 10.5948 151.208 10.0941C152.064 9.59342 153.065 9.34308 154.212 9.34308H155.399V11.6688H154.066C152.613 11.6688 151.49 12.0968 150.699 12.9528C149.908 13.8088 149.512 14.9636 149.512 16.4172V24H146.823Z" fill="#00291B"/>
<path d="M161.919 24C161.143 24 160.538 23.8062 160.102 23.4186C159.682 23.0148 159.472 22.4172 159.472 21.6258V11.5477H156.758V9.46422H159.496V5.10348H162.161V9.46422H165.964V11.5477H162.185V21.8681H166.352V24H161.919Z" fill="#00291B"/>
</svg>
